<?xml version='1.0' encoding='utf-8'?>
<svg xmlns="http://www.w3.org/2000/svg" version="1.1" id="Layer_1" x="0px" y="0px" width="1189.44px" height="803.963px" viewBox="0 0 1189.44 803.963" enable-background="new 0 0 1189.44 803.963"> <rect fill="#D0DCE5" width="1189.44" height="803.963"/> <g> <g> <g> <path fill="#D0DCE5" d="M652.642,66.124H501.008c-13.019,0-23.658,10.658-23.658,23.678v1.935 c0,13.021,10.64,23.667,23.658,23.667h151.634c13.031,0,23.673-10.645,23.673-23.667v-1.935 C676.315,76.782,665.673,66.124,652.642,66.124z"/> </g> <g> <path fill="#D0DCE5" d="M743.299,161.975H507.896c-13.548,0-24.654,11.084-24.654,24.637c0,13.55,11.105,24.651,24.654,24.651 h235.403c13.569,0,24.636-11.101,24.636-24.651C767.935,173.059,756.868,161.975,743.299,161.975z"/> </g> <g> <path fill="#D0DCE5" d="M836.782,161.975h-37.946c-13.087,0-23.796,10.708-23.796,23.797v1.695 c0,13.086,10.709,23.795,23.796,23.795h37.946c13.089,0,23.796-10.709,23.796-23.795v-1.695 C860.578,172.683,849.871,161.975,836.782,161.975z"/> </g> <g> <path fill="#D0DCE5" d="M625.003,114.077H505.789c12.008,0,21.826,9.816,21.826,21.825v5.617 c0,12.012-9.817,21.845-21.826,21.845h119.214c-11.99,0-21.825-9.833-21.825-21.845v-5.617 C603.178,123.894,613.013,114.077,625.003,114.077z"/> </g> </g> <g> <g> <g> <g> <rect x="815.012" y="628.658" fill="#4D4D4D" width="90.013" height="13.555"/> </g> </g> </g> </g> <g> <g> <g> <g> <rect x="864.332" y="661.092" fill="#4D4D4D" width="116.847" height="13.564"/> </g> </g> </g> </g> <g> <g> <g> <g> <g> <g> <g> <polygon fill="#FFFFFF" points="1092.375,222.428 1141.576,238.722 1081.35,302.899 853.729,392.429 "/> </g> </g> </g> </g> </g> <g> <g> <g> <g> <g> <polygon fill="#50BFD8" points="1079.52,231.592 1078.03,221.262 853.729,392.429 "/> </g> </g> </g> </g> </g> <g> <g> <g> <g> <g> <polygon fill="#FFFFFF" points="1078.03,221.262 1024.426,208.279 946.399,258.856 853.729,392.429 "/> </g> </g> </g> </g> </g> <g> <g> <g> <g> <polygon fill="#50BFD8" points="1080.529,303.019 1098.106,285.417 1102.592,322.551 853.729,392.429 "/> </g> </g> </g> </g> </g> </g> <g> <g> <path fill="#B2E2EF" d="M687.656,199.963v82.109c38.24,2.655,68.555,34.618,68.495,73.521c-0.02,8.629-1.529,16.917-4.283,24.619 l5.467,1.711l73.324,21.303c4.825-14.988,7.54-30.959,7.563-47.552C838.306,271.36,771.34,202.699,687.656,199.963z"/> </g> <g> <path fill="#FFFFFF" d="M679.454,199.9c-41.681,0.827-79.233,18.003-106.712,45.401l58.777,57.228 c12.549-12.088,29.347-19.793,47.935-20.558V199.9z"/> </g> <g> <path fill="#F69070" d="M679.454,429.065c-39.227-1.641-70.606-34.048-70.586-73.634c0.041-17.831,6.42-34.195,17.02-46.929 l-58.879-57.348c-24.942,27.58-40.13,64.087-40.188,104.178c-0.083,85.007,67.968,154.139,152.633,155.768V429.065z"/> </g> <g> <path fill="#FFDB77" d="M748.589,387.91c-11.305,22.941-34.157,39.191-60.933,41.044V511.1 c64.19-2.089,118.542-43.033,140.305-100.109L748.589,387.91z"/> </g> </g> <g> <g> <g> <rect x="144.269" y="98.547" fill="#FFFFFF" width="402.041" height="531.667"/> </g> </g> <g> <g> <rect x="144.269" y="555.998" fill="#B2E2EF" width="402.041" height="4.85"/> </g> </g> <g> <g> <polygon fill="#FFDB77" points="546.31,547.996 144.269,547.996 144.269,469.608 171.666,494.326 210.65,479.311 238.791,487.931 291.189,429.859 336.65,459.013 360.567,437.801 397.702,454.46 461.987,404.261 497.735,420.585 546.31,369.796 "/> </g> <g> <polygon fill="#B2E2EF" points="546.31,547.996 144.269,547.996 144.269,523.476 172.973,510.229 209.343,487.267 239.231,498.752 290.527,474.013 332.75,488.145 360.567,464.717 393.153,497.859 454.224,458.883 498.054,441.506 546.31,466.064 "/> </g> <g> <polygon fill="#F69070" points="546.31,547.996 144.269,547.996 144.269,529.649 170.379,535.411 209.343,512.873 239.897,512.42 287.953,494.75 334.698,518.627 356.966,479.311 393.153,508.447 454.868,492.558 497.735,471.355 546.31,484.311 "/> </g> </g> <g> <rect x="188.987" y="253.911" fill="#F69070" width="92.104" height="5.451"/> </g> <g> <rect x="188.987" y="241.429" fill="#F69070" width="306.614" height="5.461"/> </g> <g> <rect x="188.987" y="228.949" fill="#F69070" width="306.614" height="5.462"/> </g> <g> <rect x="188.987" y="216.495" fill="#F69070" width="306.614" height="5.433"/> </g> <g> <rect x="188.987" y="385.424" fill="#F69070" width="193.265" height="5.451"/> </g> <g> <rect x="188.987" y="372.954" fill="#F69070" width="306.614" height="5.44"/> </g> <g> <rect x="188.987" y="360.48" fill="#F69070" width="306.614" height="5.451"/> </g> <g> <rect x="188.987" y="317.003" fill="#F69070" width="112.181" height="5.44"/> </g> <g> <rect x="188.987" y="304.52" fill="#F69070" width="306.614" height="5.462"/> </g> <g> <rect x="188.987" y="292.07" fill="#F69070" width="306.614" height="5.411"/> </g> <g> <rect x="294.026" y="158.929" fill="#B2E2EF" width="96.552" height="13.214"/> </g> <g> <rect x="196.187" y="589.582" fill="#F69070" width="74.488" height="7.978"/> </g> <g> <rect x="169.857" y="585.608" fill="#FFDB77" width="15.95" height="15.942"/> </g> <g> <rect x="321.223" y="589.582" fill="#F69070" width="74.444" height="7.978"/> </g> <g> <rect x="294.872" y="585.608" fill="#B2E2EF" width="15.933" height="15.942"/> </g> <g> <rect x="445.231" y="589.313" fill="#F69070" width="74.506" height="7.985"/> </g> <g> <rect x="418.92" y="585.339" fill="#F69070" width="15.934" height="15.941"/> </g> </g> <g> <path fill="#FFFFFF" d="M286.746,703.044v12.512c0,6.905,5.45,12.489,12.208,12.489h479.183c6.759,0,12.211-5.584,12.211-12.489 v-12.512H286.746z"/> </g> <path fill="#686969" d="M767.053,703.044V438.67c0-14.686-11.646-26.633-26.005-26.633H336.066 c-14.381,0-26.049,11.947-26.049,26.633v264.374"/> <g> <rect x="332.728" y="437.277" fill="#E6E6E5" width="411.636" height="245.327"/> </g> <g> <path fill="#FFFFFF" d="M545.263,424.78c0,3.81-2.996,6.887-6.718,6.887c-3.699,0-6.717-3.077-6.717-6.887 c0-3.793,3.018-6.872,6.717-6.872C542.267,417.908,545.263,420.987,545.263,424.78z"/> </g> <g> <rect x="332.728" y="437.277" fill="#BBC0C4" width="411.636" height="20.601"/> </g> <g> <path fill="#F69070" d="M352.36,447.58c0,3.097-2.453,5.631-5.489,5.631c-3.041,0-5.513-2.534-5.513-5.631 c0-3.116,2.472-5.649,5.513-5.649C349.907,441.931,352.36,444.464,352.36,447.58z"/> </g> <g> <path fill="#FFDB77" d="M371.469,447.58c0,3.097-2.453,5.631-5.511,5.631c-3.037,0-5.511-2.534-5.511-5.631 c0-3.116,2.474-5.649,5.511-5.649C369.016,441.931,371.469,444.464,371.469,447.58z"/> </g> <g> <path fill="#B2E2EF" d="M390.539,447.58c0,3.097-2.453,5.631-5.473,5.631c-3.056,0-5.532-2.534-5.532-5.631 c0-3.116,2.476-5.649,5.532-5.649C388.086,441.931,390.539,444.464,390.539,447.58z"/> </g> <g> <g> <g> <g> <g> <path fill="#D0DCE5" d="M844.586,704.754H740.589c-9.419,0-17.125-7.709-17.125-17.118l0,0c0-9.42,7.706-17.126,17.125-17.126 h103.997c9.418,0,17.116,7.706,17.116,17.126l0,0C861.702,697.045,854.004,704.754,844.586,704.754z"/> </g> </g> </g> </g> <g> <g> <g> <g> <path fill="#D0DCE5" d="M912.972,771.35H732.488c-9.412,0-17.117-7.707-17.117-17.127l0,0c0-9.413,7.705-17.122,17.117-17.122 h180.483c9.421,0,17.118,7.709,17.118,17.122l0,0C930.09,763.643,922.393,771.35,912.972,771.35z"/> </g> </g> </g> </g> <g> <g> <g> <g> <path fill="#D0DCE5" d="M810.013,722.893v-3.896c0-8.348,6.826-15.173,15.169-15.173h-82.833 c8.345,0,15.17,6.825,15.17,15.173v3.896c0,8.349-6.825,15.175-15.17,15.175h82.833 C816.839,738.067,810.013,731.241,810.013,722.893z"/> </g> </g> </g> </g> </g> <g> <path fill="#333333" d="M731.15,447.58l3.982-4.103c0.582-0.564,0.582-1.521,0-2.125c-0.563-0.581-1.51-0.581-2.093,0 l-3.982,4.095l-3.981-4.095c-0.588-0.581-1.508-0.581-2.093,0c-0.583,0.604-0.583,1.561,0,2.125l4.001,4.103l-4.001,4.081 c-0.583,0.573-0.583,1.55,0,2.135c0.585,0.604,1.505,0.604,2.093,0l3.981-4.082l3.982,4.082c0.583,0.604,1.529,0.604,2.093,0 c0.582-0.585,0.582-1.562,0-2.135L731.15,447.58z"/> </g> <g> <g> <path fill="#D9DEE6" d="M700.333,604.786c0,3.553-2.896,6.422-6.435,6.422H489.927c-3.561,0-6.417-2.869-6.417-6.422V476.242 c0-3.537,2.857-6.416,6.417-6.416h203.971c3.539,0,6.435,2.879,6.435,6.416V604.786z"/> </g> <g> <path fill="#333333" d="M700.333,604.786c0,3.553-2.896,6.422-6.435,6.422H489.927c-3.561,0-6.417-2.869-6.417-6.422V476.242 c0-3.537,2.857-6.416,6.417-6.416h203.971c3.539,0,6.435,2.879,6.435,6.416V604.786z"/> </g> <g> <g> <path fill="none" d="M489.927,469.826c-3.561,0-6.435,2.879-6.435,6.416v10.038l16.474-16.454H489.927z"/> </g> <g> <polygon fill="none" points="537.882,469.826 483.492,524.217 483.492,538.44 552.125,469.826 "/> </g> <g> <polygon fill="none" points="541.143,611.208 682.529,469.826 668.289,469.826 526.898,611.208 "/> </g> <g> <polygon fill="none" points="511.833,469.826 483.492,498.128 483.492,512.368 526.033,469.826 "/> </g> <g> <polygon fill="none" points="656.442,469.826 642.198,469.826 500.829,611.208 515.071,611.208 "/> </g> <g> <polygon fill="none" points="619.37,611.208 700.333,530.254 700.333,516.028 605.148,611.208 "/> </g> <g> <path fill="none" d="M567.208,611.208l133.125-133.092v-1.874c0-3.376-2.655-6.146-5.996-6.372L552.989,611.208H567.208z"/> </g> <g> <polygon fill="none" points="671.53,611.208 700.333,582.431 700.333,568.189 657.305,611.208 "/> </g> <g> <path fill="none" d="M616.132,469.826l-132.64,132.638v2.322c0,3.25,2.432,5.914,5.59,6.336l141.271-141.296H616.132z"/> </g> <g> <path fill="none" d="M693.898,611.208c3.539,0,6.435-2.869,6.435-6.422v-10.509l-16.936,16.931H693.898z"/> </g> <g> <polygon fill="none" points="645.457,611.208 700.333,556.344 700.333,542.121 631.215,611.208 "/> </g> <g> <polygon fill="none" points="590.042,469.826 483.492,576.388 483.492,590.597 604.282,469.826 "/> </g> <g> <polygon fill="none" points="563.972,469.826 483.492,550.309 483.492,564.532 578.193,469.826 "/> </g> <g> <polygon fill="none" points="593.302,611.208 700.333,504.184 700.333,489.962 579.06,611.208 "/> </g> <g> <polygon fill="#F69070" points="499.966,469.826 483.492,486.28 483.492,498.128 511.833,469.826 "/> </g> <g> <polygon fill="#B2E2EF" points="526.033,469.826 483.492,512.368 483.492,524.217 537.882,469.826 "/> </g> <g> <polygon fill="#F69070" points="552.125,469.826 483.492,538.44 483.492,550.309 563.972,469.826 "/> </g> <g> <polygon fill="#B2E2EF" points="578.193,469.826 483.492,564.532 483.492,576.388 590.042,469.826 "/> </g> <g> <polygon fill="#F69070" points="604.282,469.826 483.492,590.597 483.492,602.464 616.132,469.826 "/> </g> <g> <path fill="#B2E2EF" d="M630.353,469.826L489.083,611.122c0.261,0.051,0.544,0.086,0.845,0.086h10.901l141.37-141.382H630.353z"/> </g> <g> <polygon fill="#F69070" points="526.898,611.208 668.289,469.826 656.442,469.826 515.071,611.208 "/> </g> <g> <path fill="#B2E2EF" d="M552.989,611.208L694.338,469.87c-0.164-0.024-0.303-0.044-0.439-0.044h-11.369L541.143,611.208H552.989 z"/> </g> <g> <polygon fill="#F69070" points="579.06,611.208 700.333,489.962 700.333,478.116 567.208,611.208 "/> </g> <g> <polygon fill="#B2E2EF" points="605.148,611.208 700.333,516.028 700.333,504.184 593.302,611.208 "/> </g> <g> <polygon fill="#F69070" points="631.215,611.208 700.333,542.121 700.333,530.254 619.37,611.208 "/> </g> <g> <polygon fill="#B2E2EF" points="657.305,611.208 700.333,568.189 700.333,556.344 645.457,611.208 "/> </g> <g> <polygon fill="#F69070" points="683.397,611.208 700.333,594.277 700.333,582.431 671.53,611.208 "/> </g> </g> <g> <rect x="492.764" y="478.171" fill="#FFFFFF" width="198.296" height="124.687"/> </g> <g> <rect x="505.921" y="489.962" fill="#BBC0C4" width="51.032" height="22.406"/> </g> <g> <rect x="639.684" y="485.135" fill="#F3F3F3" width="42.846" height="49.864"/> </g> </g> <g> <g> <rect x="372.394" y="536.206" fill="#FFFFFF" width="214.731" height="129.682"/> </g> <g> <polygon fill="#F3F3F3" points="480.352,598.222 372.394,665.888 372.394,536.206 "/> </g> <g> <polygon fill="#F3F3F3" points="479.187,598.222 587.125,665.888 587.125,536.206 "/> </g> <g> <polygon fill="#BBC0C4" points="480.211,617.915 372.394,536.206 587.125,536.206 "/> </g> <g> <polygon fill="#FFFFFF" points="480.151,597.075 372.394,536.206 587.125,536.206 "/> </g> </g> <g> <g> <path fill="#A3A3A2" d="M670.179,529.759c-31.723,0-61.533-12.339-83.979-34.758c-46.287-46.314-46.287-121.645,0-167.953 c22.446-22.426,52.256-34.758,83.979-34.758c31.703,0,61.53,12.332,83.942,34.758c22.431,22.449,34.776,52.26,34.776,83.96 c0,31.733-12.346,61.536-34.776,83.993C731.709,517.42,701.882,529.759,670.179,529.759z M670.179,323.318 c-23.431,0-45.479,9.124-62.018,25.667c-34.213,34.204-34.213,89.862,0,124.06c16.539,16.575,38.587,25.688,62.018,25.688 c23.437,0,45.461-9.112,62.016-25.688c16.576-16.558,25.685-38.579,25.685-62.037c0-23.413-9.108-45.448-25.685-62.022 C715.641,332.441,693.616,323.318,670.179,323.318z"/> </g> <g opacity="0.4"> <path fill="#CCCBC9" d="M734.287,346.884c35.401,35.433,35.401,92.842,0,128.264c-35.422,35.415-92.832,35.415-128.255,0 c-35.402-35.422-35.402-92.831,0-128.264C641.455,311.48,698.865,311.48,734.287,346.884z"/> </g> <g opacity="0.2"> <path fill="#333333" d="M662.697,320.652c20.616,1.711,40.813,10.439,56.604,26.231c35.404,35.433,35.404,92.842,0,128.264 c-15.79,15.799-35.988,24.551-56.604,26.22c25.604,2.115,51.997-6.599,71.59-26.22c35.401-35.422,35.401-92.831,0-128.264 C714.694,327.271,688.301,318.541,662.697,320.652z"/> </g> <g> <path fill="#FFFFFF" d="M603.218,400.18c-0.885,0-1.791-0.129-2.698-0.396c-4.909-1.489-7.703-6.686-6.216-11.602 c0.705-2.315,1.512-4.597,2.414-6.841c6.239-15.427,16.938-28.292,30.978-37.184c4.324-2.765,10.077-1.459,12.853,2.889 c2.74,4.332,1.449,10.076-2.878,12.831c-10.738,6.781-18.909,16.637-23.692,28.442c-0.683,1.73-1.328,3.461-1.851,5.242 C610.921,397.571,607.219,400.18,603.218,400.18z"/> </g> <g> <path fill="#FFFFFF" d="M612.249,459.459c-3.02,0-5.955-1.44-7.746-4.115c-6.518-9.669-10.922-20.878-12.673-32.404 c-0.764-5.09,2.718-9.848,7.807-10.642c5.066-0.745,9.816,2.747,10.598,7.823c1.348,8.833,4.706,17.41,9.719,24.825 c2.856,4.264,1.729,10.057-2.535,12.932C615.825,458.946,614.02,459.459,612.249,459.459z"/> </g> <g> <polygon fill="#A3A3A2" points="880.221,642.997 732.195,495.001 754.121,473.045 902.147,621.072 "/> </g> </g> <g> <g> <path fill="#333333" d="M651.053,134.08h-82.174c-1.728,0-3.095-1.377-3.095-3.106c0-1.706,1.367-3.089,3.095-3.089h82.174 c1.745,0,3.114,1.383,3.114,3.089C654.167,132.703,652.798,134.08,651.053,134.08z"/> </g> <g> <path fill="#333333" d="M679.653,111.697h-13.274c-1.713,0-3.119-1.393-3.119-3.098c0-1.719,1.406-3.113,3.119-3.113h13.274 c1.689,0,3.077,1.394,3.077,3.113C682.73,110.304,681.343,111.697,679.653,111.697z"/> </g> <g> <path fill="#333333" d="M695.467,163.283h-13.275c-1.73,0-3.122-1.377-3.122-3.109c0-1.71,1.392-3.098,3.122-3.098h13.275 c1.708,0,3.077,1.388,3.077,3.098C698.543,161.906,697.175,163.283,695.467,163.283z"/> </g> <g> <path fill="#333333" d="M651.053,111.697h-50.031c-1.709,0-3.115-1.393-3.115-3.098c0-1.719,1.406-3.113,3.115-3.113h50.031 c1.745,0,3.114,1.394,3.114,3.113C654.167,110.304,652.798,111.697,651.053,111.697z"/> </g> <g> <path fill="#333333" d="M725.676,88.937h-60.424c-1.709,0-3.119-1.394-3.119-3.098c0-1.715,1.409-3.109,3.119-3.109h60.424 c1.689,0,3.097,1.394,3.097,3.109C728.772,87.543,727.365,88.937,725.676,88.937z"/> </g> </g> <g> <g> <path fill="#333333" d="M890.321,502.292h-82.216c-1.705,0-3.092-1.407-3.092-3.117c0-1.709,1.387-3.1,3.092-3.1h82.216 c1.689,0,3.097,1.391,3.097,3.1C893.418,500.885,892.011,502.292,890.321,502.292z"/> </g> <g> <path fill="#333333" d="M918.861,479.895h-13.275c-1.69,0-3.097-1.377-3.097-3.087c0-1.732,1.406-3.117,3.097-3.117h13.275 c1.729,0,3.096,1.385,3.096,3.117C921.957,478.518,920.59,479.895,918.861,479.895z"/> </g> <g> <path fill="#333333" d="M934.695,531.489h-13.281c-1.705,0-3.091-1.397-3.091-3.106c0-1.708,1.386-3.099,3.091-3.099h13.281 c1.707,0,3.098,1.391,3.098,3.099C937.793,530.092,936.402,531.489,934.695,531.489z"/> </g> <g> <path fill="#333333" d="M890.321,479.895H840.25c-1.708,0-3.075-1.377-3.075-3.087c0-1.732,1.367-3.117,3.075-3.117h50.071 c1.689,0,3.097,1.385,3.097,3.117C893.418,478.518,892.011,479.895,890.321,479.895z"/> </g> <g> <g> <path fill="#333333" d="M964.886,457.133h-7.764c-1.71,0-3.079-1.367-3.079-3.089c0-1.729,1.369-3.123,3.079-3.123h7.764 c1.73,0,3.099,1.394,3.099,3.123C967.984,455.766,966.616,457.133,964.886,457.133z"/> </g> <g> <path fill="#333333" d="M942.156,457.133h-14.945c-1.73,0-3.116-1.367-3.116-3.089c0-1.729,1.386-3.123,3.116-3.123h14.945 c1.73,0,3.099,1.394,3.099,3.123C945.255,455.766,943.887,457.133,942.156,457.133z"/> </g> <g> <path fill="#333333" d="M912.245,457.133h-7.764c-1.73,0-3.119-1.367-3.119-3.089c0-1.729,1.389-3.123,3.119-3.123h7.764 c1.714,0,3.08,1.394,3.08,3.123C915.325,455.766,913.959,457.133,912.245,457.133z"/> </g> </g> <g> <g> <path fill="#333333" d="M887.403,255.499h-7.742c-1.753,0-3.122-1.386-3.122-3.097c0-1.708,1.369-3.098,3.122-3.098h7.742 c1.711,0,3.098,1.39,3.098,3.098C890.501,254.112,889.114,255.499,887.403,255.499z"/> </g> <g> <path fill="#333333" d="M870.064,255.499h-9.574c-1.69,0-3.118-1.386-3.118-3.097c0-1.708,1.428-3.098,3.118-3.098h9.574 c1.708,0,3.1,1.39,3.1,3.098C873.164,254.112,871.772,255.499,870.064,255.499z"/> </g> <g> <path fill="#333333" d="M850.914,255.499h-7.767c-1.706,0-3.095-1.386-3.095-3.097c0-1.708,1.389-3.098,3.095-3.098h7.767 c1.712,0,3.117,1.39,3.117,3.098C854.031,254.112,852.626,255.499,850.914,255.499z"/> </g> </g> <g> <path fill="#333333" d="M906.612,278.22h-38.459c-1.709,0-3.099-1.377-3.099-3.109c0-1.699,1.39-3.097,3.099-3.097h38.459 c1.71,0,3.118,1.398,3.118,3.097C909.73,276.843,908.322,278.22,906.612,278.22z"/> </g> </g> <g> <g> <path fill="#333333" d="M365.958,69.756h-7.743c-1.712,0-3.118-1.393-3.118-3.104c0-1.713,1.406-3.097,3.118-3.097h7.743 c1.708,0,3.121,1.384,3.121,3.097C369.079,68.363,367.667,69.756,365.958,69.756z"/> </g> <g> <path fill="#333333" d="M385.107,69.756h-9.595c-1.707,0-3.076-1.393-3.076-3.104c0-1.713,1.369-3.097,3.076-3.097h9.595 c1.71,0,3.097,1.384,3.097,3.097C388.205,68.363,386.818,69.756,385.107,69.756z"/> </g> <g> <path fill="#333333" d="M402.427,69.756h-7.766c-1.708,0-3.094-1.393-3.094-3.104c0-1.713,1.387-3.097,3.094-3.097h7.766 c1.71,0,3.117,1.384,3.117,3.097C405.544,68.363,404.137,69.756,402.427,69.756z"/> </g> </g> <g> <path fill="#333333" d="M377.424,47.042h-38.461c-1.69,0-3.099-1.378-3.099-3.108c0-1.705,1.409-3.087,3.099-3.087h38.461 c1.73,0,3.117,1.382,3.117,3.087C380.541,45.665,379.154,47.042,377.424,47.042z"/> </g> <g> <g> <path fill="#333333" d="M234.647,678.22h-38.46c-1.71,0-3.099-1.398-3.099-3.106c0-1.7,1.389-3.109,3.099-3.109h38.46 c1.708,0,3.116,1.409,3.116,3.109C237.763,676.821,236.355,678.22,234.647,678.22z"/> </g> <g> <path fill="#333333" d="M246.556,659.786h-38.459c-1.69,0-3.098-1.401-3.098-3.109c0-1.712,1.408-3.087,3.098-3.087h38.459 c1.707,0,3.097,1.375,3.097,3.087C249.653,658.385,248.262,659.786,246.556,659.786z"/> </g> </g> <g> <g> <path fill="#D0DCE5" d="M150.827,581.429H87.433c-5.444,0-9.892,4.455-9.892,9.896v0.812c0,5.445,4.448,9.89,9.892,9.89h63.394 c5.451,0,9.898-4.444,9.898-9.89v-0.812C160.725,585.884,156.278,581.429,150.827,581.429z"/> </g> <g> <path fill="#D0DCE5" d="M188.729,621.502H90.313c-5.665,0-10.308,4.635-10.308,10.301c0,5.663,4.643,10.305,10.308,10.305h98.417 c5.673,0,10.3-4.642,10.3-10.305C199.029,626.137,194.402,621.502,188.729,621.502z"/> </g> <g> <path fill="#D0DCE5" d="M227.815,621.502H211.95c-5.473,0-9.949,4.475-9.949,9.947v0.708c0,5.474,4.476,9.95,9.949,9.95h15.865 c5.471,0,9.947-4.477,9.947-9.95v-0.708C237.763,625.977,233.286,621.502,227.815,621.502z"/> </g> <g> <path fill="#D0DCE5" d="M139.274,601.474H89.431c5.021,0,9.125,4.105,9.125,9.128v2.35c0,5.021-4.104,9.131-9.125,9.131h49.843 c-5.015,0-9.125-4.11-9.125-9.131v-2.35C130.148,605.579,134.259,601.474,139.274,601.474z"/> </g> </g> <g> <g id="XMLID_1507_"> <g id="XMLID_1508_"> <g id="XMLID_1511_"> <path fill-rule="evenodd" clip-rule="evenodd" fill="#333237" d="M797.588,521.365h60.736c11.771,0,21.396,9.633,21.396,21.394 V704.02c0,11.763-9.625,21.384-21.396,21.384h-60.736c-11.767,0-21.386-9.621-21.386-21.384V542.759 C776.202,530.998,785.821,521.365,797.588,521.365z"/> </g> <g id="XMLID_1510_"> <path fill-rule="evenodd" clip-rule="evenodd" fill="#FFFFFF" d="M785.606,538.483h84.703c0.162,0,0.302,0.13,0.302,0.303 v167.498c0,0.164-0.14,0.298-0.302,0.298h-84.703c-0.166,0-0.301-0.134-0.301-0.298V538.786 C785.306,538.613,785.44,538.483,785.606,538.483z"/> </g> <g id="XMLID_1509_"> <path fill-rule="evenodd" clip-rule="evenodd" fill="#FFFFFF" d="M827.958,720.931c2.88,0,5.229-2.351,5.229-5.229 c0-2.884-2.349-5.229-5.229-5.229s-5.227,2.345-5.227,5.229C822.731,718.58,825.078,720.931,827.958,720.931z"/> </g> </g> </g> <g id="XMLID_1502_" opacity="0.5"> <g id="XMLID_1506_"> <path fill-rule="evenodd" clip-rule="evenodd" fill="#333333" d="M843.286,564.604c0,8.462-6.856,15.327-15.328,15.327 c-8.458,0-15.327-6.865-15.327-15.327c0-8.467,6.869-15.327,15.327-15.327C836.43,549.277,843.286,556.138,843.286,564.604z"/> </g> <g id="XMLID_1503_"> <g id="XMLID_1505_"> <path fill-rule="evenodd" clip-rule="evenodd" fill="#E1E5EB" d="M836.618,572.562c0-0.014,0-0.035,0-0.055 c0-2.093-0.753-4.02-1.999-5.518c-1.883-0.777-4.184-1.231-6.661-1.231s-4.77,0.454-6.661,1.231 c-1.246,1.498-1.997,3.425-1.997,5.518c0,0.02,0,0.041,0,0.055H836.618z"/> </g> <g id="XMLID_1504_"> <path fill-rule="evenodd" clip-rule="evenodd" fill="#E1E5EB" d="M832.125,560.817c0,2.305-1.863,4.175-4.167,4.175 c-2.302,0-4.166-1.87-4.166-4.175c0-2.301,1.864-4.171,4.166-4.171C830.262,556.646,832.125,558.517,832.125,560.817z"/> </g> </g> </g> <g id="XMLID_1497_"> <g id="XMLID_1501_"> <rect x="792.754" y="585.11" fill-rule="evenodd" clip-rule="evenodd" fill="#E1E5EB" width="54.286" height="12.188"/> </g> <g id="XMLID_1500_"> <rect x="794.181" y="586.527" fill-rule="evenodd" clip-rule="evenodd" fill="#FFFFFF" width="51.438" height="9.352"/> </g> <g id="XMLID_1499_"> <rect x="847.991" y="585.11" fill-rule="evenodd" clip-rule="evenodd" fill="#E1E5EB" width="15.171" height="12.188"/> </g> <g id="XMLID_1498_"> <rect x="849.408" y="586.527" fill-rule="evenodd" clip-rule="evenodd" fill="#255DAB" width="12.327" height="9.352"/> </g> </g> <g id="XMLID_1488_"> <g id="XMLID_1491_"> <g id="XMLID_1492_"> <path fill="#FFFFFF" d="M857.425,589.845c0.15,1.6-1.025,3.022-2.628,3.172c-1.6,0.151-3.023-1.016-3.176-2.62 c-0.156-1.6,1.024-3.031,2.622-3.182C855.85,587.063,857.272,588.236,857.425,589.845z M852.759,590.285 c0.096,0.979,0.953,1.686,1.929,1.596c0.974-0.095,1.692-0.958,1.597-1.932c-0.093-0.97-0.958-1.688-1.936-1.594 C853.384,588.448,852.668,589.315,852.759,590.285z"/> </g> </g> <g id="XMLID_1489_"> <g id="XMLID_1490_"> <path fill="#FFFFFF" d="M859.537,594.579c0.021,0.163-0.036,0.337-0.167,0.461c-0.228,0.223-0.593,0.22-0.813-0.008l-2.6-2.646 c-0.215-0.229-0.215-0.591,0.007-0.808c0.228-0.229,0.594-0.224,0.816,0.001l2.598,2.646 C859.472,594.327,859.523,594.446,859.537,594.579z"/> </g> </g> </g> <g> <g> <g id="XMLID_1479_"> <g id="XMLID_1487_"> <path fill-rule="evenodd" clip-rule="evenodd" fill="#F69070" d="M811.013,629.194c6.196,0,11.252-5.055,11.252-11.244 c0-6.2-5.056-11.253-11.252-11.253c-6.199,0-11.247,5.053-11.247,11.253C799.766,624.14,804.813,629.194,811.013,629.194z"/> </g> <g id="XMLID_1480_"> <g id="XMLID_1486_"> <polygon fill-rule="evenodd" clip-rule="evenodd" fill="#CFCFCE" points="818.033,615.028 811.013,620.085 804.001,615.028 811.013,609.963 "/> </g> <g id="XMLID_1485_"> <polygon fill-rule="evenodd" clip-rule="evenodd" fill="#EAE9E8" points="804.001,623.307 818.033,623.307 818.033,615.028 811.013,620.085 804.001,615.028 "/> </g> <g id="XMLID_1484_"> <polygon fill-rule="evenodd" clip-rule="evenodd" fill="#FFFDFA" points="804.001,623.307 818.033,623.307 812.288,619.166 809.729,619.166 809.729,619.166 "/> </g> </g> </g> <g id="XMLID_1362_"> <g id="XMLID_1478_"> <path fill-rule="evenodd" clip-rule="evenodd" fill="#B2E2EF" d="M811.013,658.839c6.196,0,11.252-5.05,11.252-11.244 c0-6.195-5.056-11.253-11.252-11.253c-6.199,0-11.247,5.058-11.247,11.253C799.766,653.789,804.813,658.839,811.013,658.839z"/> </g> <g id="XMLID_1364_"> <g id="XMLID_1366_"> <path fill="#FFFDFA" d="M806.429,653.479c1.115,0,2.026-0.912,2.026-2.032l0,0v-7.529h6.527v3.749 c-0.238-0.093-0.496-0.143-0.756-0.143c-1.121,0-2.033,0.911-2.033,2.027c0,1.117,0.912,2.034,2.033,2.034 c1.111,0,2.029-0.917,2.029-2.034l0,0l0,0v-5.634v-2.549h-1.273h-6.527h-1.276v2.549v5.646 c-0.228-0.089-0.479-0.149-0.75-0.149c-1.12,0-2.026,0.914-2.026,2.032C804.402,652.566,805.309,653.479,806.429,653.479z"/> </g> </g> </g> <g id="XMLID_1349_"> <g id="XMLID_1360_"> <path fill-rule="evenodd" clip-rule="evenodd" fill="#F69070" d="M811.013,688.491c6.196,0,11.252-5.058,11.252-11.252 c0-6.196-5.056-11.245-11.252-11.245c-6.199,0-11.247,5.049-11.247,11.245C799.766,683.434,804.813,688.491,811.013,688.491z"/> </g> <g id="XMLID_1351_"> <g id="XMLID_1357_"> <path fill="#FFFFFF" d="M813.919,683.504c-0.257,0.248-0.673,0.248-0.933,0l-0.234-0.242 c-0.248-0.257-0.757-0.462-1.115-0.462h-5.121c-0.367,0-0.762-0.276-0.884-0.616l-2.169-6.015 c-0.28-0.795,0.171-1.442,1.017-1.442h4.256c0.188-0.616,0.085-1.11-0.095-1.385c-0.267-0.391-0.98-1.123-0.844-2.22 c0.042-0.357,0.25-0.917,0.47-1.208c0.642-0.831,1.563-0.631,1.563,0.106c0,0.885-0.472,1.766,1.19,2.855 c1.662,1.088,2.799,3.225,2.799,3.234c0,0.005,0.207,0.22,0.466,0.48l2.81,2.804c0.249,0.259,0.249,0.677,0,0.933 L813.919,683.504z"/> </g> <g id="XMLID_1355_"> <polygon fill="#FFFFFF" points="817.778,680.484 814.02,684.246 814.888,685.106 818.649,681.344 "/> </g> </g> </g> </g> <g> <g id="XMLID_1345_"> <g id="XMLID_1348_"> <path fill-rule="evenodd" clip-rule="evenodd" fill="#FFDB77" d="M844.904,688.491c6.202,0,11.252-5.058,11.252-11.252 c0-6.196-5.05-11.245-11.252-11.245c-6.194,0-11.245,5.049-11.245,11.245C833.659,683.434,838.71,688.491,844.904,688.491z"/> </g> <g id="XMLID_1346_"> <path fill="#FFFFFF" d="M851.693,680.477c0.202-0.658,0.31-1.337,0.31-2.036c0-3.904-3.187-7.096-7.099-7.118 c-3.911,0.022-7.09,3.214-7.09,7.118c0,0.699,0.098,1.39,0.298,2.05c-0.093,0.058-0.148,0.152-0.148,0.259v0.383 c0,0.179,0.143,0.319,0.316,0.319h0.783v0.692c0,0.815,0.956,1.473,2.145,1.486v-5.631c-1.039,0.013-1.898,0.515-2.099,1.183 c-0.028,0.091-0.046,0.191-0.046,0.306v0.943h-0.783c-0.059,0-0.115,0.017-0.168,0.06v-0.528c0-0.201,0.031-0.394,0.087-0.583 c0.137-0.438,0.416-0.825,0.798-1.119v-0.004c0.1-3.179,2.714-5.741,5.907-5.757c3.217,0.016,5.838,2.603,5.917,5.802 c0.423,0.351,0.693,0.79,0.785,1.292c0.022,0.125,0.039,0.246,0.039,0.369v0.485c-0.03-0.007-0.073-0.017-0.101-0.017h-0.847 v-0.943c0-0.067-0.008-0.133-0.021-0.188c-0.137-0.723-1.009-1.267-2.086-1.301v5.624c1.17-0.026,2.107-0.675,2.107-1.479 v-0.692h0.847c0.17,0,0.315-0.141,0.315-0.319v-0.383C851.86,680.634,851.795,680.526,851.693,680.477z"/> </g> </g> <g id="XMLID_1092_"> <g id="XMLID_1132_"> <path fill-rule="evenodd" clip-rule="evenodd" fill="#2C7CB9" d="M844.904,606.697c-6.194,0-11.245,5.053-11.245,11.244 c0,6.198,5.051,11.253,11.245,11.253c6.202,0,11.252-5.055,11.252-11.253C856.156,611.75,851.106,606.697,844.904,606.697z"/> </g> <g id="XMLID_1093_"> <g id="XMLID_1104_"> <g id="XMLID_1130_"> <path fill="#FFFFFF" d="M850.16,618.643c0-0.008,0-0.013,0-0.026v-6.049c0-0.437-0.357-0.8-0.801-0.8 c-0.437,0-0.797,0.363-0.797,0.8v6.049c0,0.014,0,0.019,0,0.026H850.16z"/> </g> <g id="XMLID_1121_"> <path fill="#FFFFFF" d="M848.563,620.67c0,0.017,0,0.021,0,0.03v2.621c0,0.444,0.36,0.802,0.797,0.802 c0.443,0,0.801-0.357,0.801-0.802V620.7c0-0.01,0-0.014,0-0.03H848.563z"/> </g> <g id="XMLID_1105_"> <path fill="#FFFFFF" d="M850.439,620.3h-2.162c-0.365,0-0.66-0.296-0.66-0.66l0,0c0-0.366,0.295-0.659,0.66-0.659h2.162 c0.369,0,0.667,0.293,0.667,0.659l0,0C851.106,620.004,850.809,620.3,850.439,620.3z"/> </g> </g> <g id="XMLID_1098_"> <g id="XMLID_1101_"> <path fill="#FFFFFF" d="M845.728,615.056c0-0.005,0-0.013,0-0.026v-2.462c0-0.437-0.357-0.8-0.804-0.8 c-0.437,0-0.792,0.363-0.792,0.8v2.462c0,0.014,0,0.021,0,0.026H845.728z"/> </g> <g id="XMLID_1100_"> <path fill="#FFFFFF" d="M844.132,617.089c0,0.013,0,0.02,0,0.03v6.202c0,0.444,0.355,0.802,0.792,0.802 c0.446,0,0.804-0.357,0.804-0.802v-6.202c0-0.011,0-0.018,0-0.03H844.132z"/> </g> <g id="XMLID_1099_"> <path fill="#FFFFFF" d="M846.014,616.718h-2.171c-0.356,0-0.65-0.293-0.65-0.66l0,0c0-0.364,0.294-0.658,0.65-0.658h2.171 c0.365,0,0.659,0.294,0.659,0.658l0,0C846.673,616.425,846.379,616.718,846.014,616.718z"/> </g> </g> <g id="XMLID_1094_"> <g id="XMLID_1097_"> <path fill="#FFFFFF" d="M841.243,617.112c0-0.011,0.007-0.023,0.007-0.029v-4.516c0-0.437-0.357-0.8-0.794-0.8 c-0.454,0-0.808,0.363-0.808,0.8v4.516c0,0.006,0,0.019,0,0.029H841.243z"/> </g> <g id="XMLID_1096_"> <path fill="#FFFFFF" d="M839.648,619.138c0,0.008,0,0.015,0,0.022v4.161c0,0.444,0.354,0.802,0.808,0.802 c0.437,0,0.794-0.357,0.794-0.802v-4.161c0-0.008-0.007-0.015-0.007-0.022H839.648z"/> </g> <g id="XMLID_1095_"> <path fill="#FFFFFF" d="M841.538,618.765h-2.172c-0.363,0-0.656-0.299-0.656-0.657l0,0c0-0.364,0.293-0.665,0.656-0.665 h2.172c0.355,0,0.658,0.301,0.658,0.665l0,0C842.196,618.466,841.894,618.765,841.538,618.765z"/> </g> </g> </g> </g> <g> <g id="XMLID_1091_"> <path fill-rule="evenodd" clip-rule="evenodd" fill="#FFDB77" d="M844.904,658.839c6.202,0,11.252-5.05,11.252-11.244 c0-6.195-5.05-11.253-11.252-11.253c-6.194,0-11.245,5.058-11.245,11.253C833.659,653.789,838.71,658.839,844.904,658.839z"/> </g> <g id="XMLID_1086_"> <g id="XMLID_1088_"> <path fill-rule="evenodd" clip-rule="evenodd" fill="#FFFFFF" d="M844.904,638.628c-4.95,0-8.959,4.015-8.959,8.967 c0,4.95,4.009,8.965,8.959,8.965c4.957,0,8.968-4.015,8.968-8.965C853.872,642.643,849.861,638.628,844.904,638.628z M844.904,655.272c-4.239,0-7.678-3.438-7.678-7.678c0-4.242,3.438-7.678,7.678-7.678c4.24,0,7.679,3.436,7.679,7.678 C852.583,651.835,849.145,655.272,844.904,655.272z"/> </g> <g id="XMLID_1087_"> <path fill-rule="evenodd" clip-rule="evenodd" fill="#FFFFFF" d="M844.904,643.01c-2.521,0-4.576,2.057-4.576,4.585 c0,2.521,2.055,4.584,4.576,4.584c2.527,0,4.583-2.063,4.583-4.584C849.487,645.066,847.432,643.01,844.904,643.01z"/> </g> </g> </g> </g> </g> <g> <path fill-rule="evenodd" clip-rule="evenodd" fill="#CCCBC9" d="M831.455,534.665h-6.994c-1.494,0-2.713-1.224-2.713-2.722l0,0 c0-1.491,1.219-2.722,2.713-2.722h6.994c1.496,0,2.72,1.23,2.72,2.722l0,0C834.175,533.441,832.951,534.665,831.455,534.665z"/> </g> </g> </g> </svg>