<?xml version="1.0" encoding="UTF-8"?>
<svg version="1.1" viewBox="0 0 1442.1 735.45" xmlns="http://www.w3.org/2000/svg" xmlns:xlink="http://www.w3.org/1999/xlink">
 <defs>
  <linearGradient id="a">
   <stop stop-color="#f3e57c" offset="0"/>
   <stop stop-color="#f2ebce" offset=".5"/>
   <stop stop-color="#f0db22" offset="1"/>
  </linearGradient>
  <filter id="ad" color-interpolation-filters="sRGB">
   <feGaussianBlur stdDeviation="1.8158482"/>
  </filter>
  <linearGradient id="ae" x1="696" x2="696" y1="973.37" y2="978.73" gradientTransform="translate(270.42 -137.28)" gradientUnits="userSpaceOnUse" xlink:href="#a"/>
  <linearGradient id="af" x1="696" x2="696" y1="973.37" y2="978.73" gradientTransform="matrix(1.1634 0 0 1.1623 -760.74 146.5)" gradientUnits="userSpaceOnUse" xlink:href="#a"/>
  <linearGradient id="ag" x1="696" x2="696" y1="973.37" y2="978.73" gradientTransform="matrix(1.0543 0 0 .73164 -176.51 479.24)" gradientUnits="userSpaceOnUse" xlink:href="#a"/>
  <linearGradient id="ah" x1="696" x2="696" y1="973.37" y2="978.73" gradientTransform="matrix(.96385 0 0 .6637 -127.95 573.75)" gradientUnits="userSpaceOnUse" xlink:href="#a"/>
  <linearGradient id="ai" x1="696" x2="696" y1="973.37" y2="978.73" gradientTransform="matrix(.9147 0 0 .89982 -1656.7 -30.099)" gradientUnits="userSpaceOnUse" xlink:href="#a"/>
  <linearGradient id="aj" x1="696" x2="696" y1="973.37" y2="978.73" gradientTransform="matrix(.9147 0 0 .89982 -560.28 404.67)" gradientUnits="userSpaceOnUse" xlink:href="#a"/>
  <linearGradient id="ak" x1="696" x2="696" y1="973.37" y2="978.73" gradientTransform="matrix(1.113 0 0 1.0949 -885.07 360.88)" gradientUnits="userSpaceOnUse" xlink:href="#a"/>
  <linearGradient id="al" x1="696" x2="696" y1="973.37" y2="978.73" gradientTransform="translate(428.53 -217.85)" gradientUnits="userSpaceOnUse" xlink:href="#a"/>
  <linearGradient id="am" x1="696" x2="696" y1="973.37" y2="978.73" gradientTransform="matrix(.42862 0 0 .62685 -1054.8 604.87)" gradientUnits="userSpaceOnUse" xlink:href="#a"/>
  <linearGradient id="an" x1="696" x2="696" y1="973.37" y2="978.73" gradientTransform="matrix(.19735 0 0 .62685 1077.3 105.98)" gradientUnits="userSpaceOnUse" xlink:href="#a"/>
  <linearGradient id="ao" x1="696" x2="696" y1="973.37" y2="978.73" gradientTransform="matrix(1.5265 0 0 1.3707 -2294.7 -534.57)" gradientUnits="userSpaceOnUse" xlink:href="#a"/>
  <filter id="v" x="-.11182" y="-.49761" width="1.2236" height="1.9952" color-interpolation-filters="sRGB">
   <feGaussianBlur stdDeviation="9.5976232"/>
  </filter>
  <filter id="w" x="-.16114" y="-.71707" width="1.3223" height="2.4341" color-interpolation-filters="sRGB">
   <feGaussianBlur stdDeviation="13.830548"/>
  </filter>
  <filter id="x" x="-.16114" y="-.71707" width="1.3223" height="2.4341" color-interpolation-filters="sRGB">
   <feGaussianBlur stdDeviation="13.830548"/>
  </filter>
  <filter id="y" x="-.13923" y="-.61958" width="1.2785" height="2.2392" color-interpolation-filters="sRGB">
   <feGaussianBlur stdDeviation="11.950078"/>
  </filter>
  <filter id="z" x="-.17546" y="-.78078" width="1.3509" height="2.5616" color-interpolation-filters="sRGB">
   <feGaussianBlur stdDeviation="15.059213"/>
  </filter>
  <filter id="aa" x="-.1016" y="-.45212" width="1.2032" height="1.9042" color-interpolation-filters="sRGB">
   <feGaussianBlur stdDeviation="8.7202142"/>
  </filter>
  <filter id="ab" x="-.15261" y="-.67913" width="1.3052" height="2.3583" color-interpolation-filters="sRGB">
   <feGaussianBlur stdDeviation="13.098662"/>
  </filter>
  <filter id="ac" color-interpolation-filters="sRGB">
   <feGaussianBlur stdDeviation="2.1168321"/>
  </filter>
 </defs>
 <g transform="translate(-149.38 -275.61)">
  <rect x="156.33" y="869.88" width="1289.2" height="74.064" fill="#cfd4d3" filter="url(#ac)"/>
  <path transform="translate(149.38 275.61)" d="m1416.5 413.74-268.48 57.862-162.01 34.717-99.523 67.12-4.629-18.516-131.93 106.47-740.64-18.516 34.717 18.516-32.403 71.749 173.59-30.088 256.91-9.258 243.02 20.83 129.61-37.032 189.79-155.07 418.92-90.265z" fill="#c8c7b4"/>
  <rect x="209.56" y="427.81" width="205.99" height="46.29" fill="#e9e9e9" filter="url(#v)"/>
  <rect transform="matrix(.68931 0 0 .68931 150.61 94.017)" x="498.87" y="316.71" width="205.99" height="46.29" fill="#e9e9e9" filter="url(#z)"/>
  <rect transform="matrix(.68931 0 0 1.0947 495.47 67.478)" x="498.87" y="316.71" width="205.99" height="46.29" fill="#e9e9e9" filter="url(#y)"/>
  <rect transform="matrix(.59048 0 0 1.0636 -65.331 405.54)" x="498.87" y="316.71" width="205.99" height="46.29" fill="#e9e9e9" filter="url(#ab)"/>
  <rect transform="matrix(.88696 0 0 1.5976 249.21 37.511)" x="498.87" y="316.71" width="205.99" height="46.29" fill="#e9e9e9" filter="url(#aa)"/>
  <rect transform="matrix(.55923 0 0 1.0073 692.77 253.18)" x="498.87" y="316.71" width="205.99" height="46.29" fill="#e9e9e9" filter="url(#x)"/>
  <rect transform="matrix(.55923 0 0 1.0073 658.05 313.35)" x="498.87" y="316.71" width="205.99" height="46.29" fill="#e9e9e9" filter="url(#w)"/>
  <path d="m1566.4 293.13-146.1 147.67-245.07 31.419-177.52 257.64-212.08-6.2838-265.49 166.52 582.82-23.564 474.43-9.4257z" fill="#cfc5ae"/>
  <g transform="matrix(.59067 0 0 .59067 -129.59 438.31)">
   <path transform="matrix(.94925 0 0 .94925 339.9 -24.856)" d="m939.44 907.41c0 36.542-29.623 66.165-66.165 66.165s-66.165-29.623-66.165-66.165 29.623-66.165 66.165-66.165 66.165 29.623 66.165 66.165z" fill="#cac6aa" stroke="#5e3535" stroke-linecap="round" stroke-linejoin="round" stroke-width="7"/>
   <path transform="matrix(.94925 0 0 .94925 149.4 -28.689)" d="m939.44 907.41c0 36.542-29.623 66.165-66.165 66.165s-66.165-29.623-66.165-66.165 29.623-66.165 66.165-66.165 66.165 29.623 66.165 66.165z" fill="#cac6aa" stroke="#5e3535" stroke-linecap="round" stroke-linejoin="round" stroke-width="7"/>
   <rect x="966.42" y="834.27" width="96.975" height="7.0711" rx="5" fill="url(#ae)"/>
   <rect transform="matrix(.67521 -.73763 .72969 .68378 0 0)" x="48.953" y="1275.7" width="112.82" height="8.2188" rx="5.8168" fill="url(#af)"/>
   <rect transform="matrix(.87882 -.47716 .46775 .88386 0 0)" x="557.28" y="1190.1" width="102.24" height="5.1735" rx="5.2716" fill="url(#ag)"/>
   <rect transform="matrix(.8816 -.472 .47288 .88112 0 0)" x="542.89" y="1218.6" width="93.469" height="4.693" rx="4.8193" fill="url(#ah)"/>
   <rect transform="matrix(-.22321 -.97477 .98284 -.18448 0 0)" x="-1020" y="844.12" width="88.703" height="6.3627" rx="4.5735" fill="url(#ai)"/>
   <rect transform="matrix(.65481 -.75579 .7293 .6842 0 0)" x="76.348" y="1278.9" width="88.703" height="6.3627" rx="4.5735" fill="url(#aj)"/>
   <rect x="901.38" y="747.48" width="93.944" height="70.711" fill="#6f7b78"/>
   <rect x="901.38" y="747.48" width="93.944" height="41.416" fill="#5c6663"/>
   <rect x="1131.9" y="681.08" width="94.53" height="71.52" fill="#464e4b"/>
   <rect transform="matrix(.48985 -.87181 .85174 .52396 0 0)" x="-110.42" y="1424.6" width="107.93" height="7.7421" rx="5.5651" fill="url(#ak)"/>
   <rect x="1124.5" y="753.7" width="96.975" height="7.0711" rx="5" fill="url(#al)"/>
   <rect transform="rotate(-90)" x="-756.47" y="1213.9" width="41.565" height="4.4325" rx="2.1431" fill="url(#am)"/>
   <rect x="1214.7" y="715" width="19.138" height="4.4325" rx=".98674" fill="url(#an)"/>
   <path transform="translate(-346.02 -17.773)" d="m1431.9 861.3c0 9.2024-7.4601 16.662-16.662 16.662-9.2024 0-16.662-7.46-16.662-16.662 0-9.2024 7.4601-16.662 16.662-16.662 9.2024 0 16.662 7.46 16.662 16.662z" fill="#c7c3ad"/>
   <g transform="translate(503.75 -85.202)">
    <path d="m559.1 689.17s8.7067 12.438 9.9506 23.011c1.2438 10.572 3.7314 19.901 3.7314 19.901l41.046 27.364-3.7314 6.2191s-18.035-3.7315-29.23-10.572c-11.194-6.841-19.279-16.17-19.279-16.17s-6.2191-16.792-8.7067-25.498c-2.4876-8.7067 6.2191-24.254 6.2191-24.254z" fill="#464e4b"/>
    <path d="m564.56 936.34 5.6402 6.708 46.733-106.48-61.569-18.035 6.841-82.092 16.17-32.961h-10.572s0.62191-14.926-9.3286-22.389c-9.9505-7.4629-17.413-10.572-24.254-1.2438-6.841 9.3286-32.339 63.435-37.936 90.799-5.5972 27.364-10.572 52.862-10.572 52.862s23.011 10.572 36.071 13.06c13.06 2.4876 62.191 11.816 62.191 11.816s-13.682 16.17-15.548 28.608c-1.8657 12.438-3.8644 59.351-3.8644 59.351z" fill="#5c6663"/>
    <path d="m536.09 688.55c-4.3534 4.3534-0.62191 26.742 0.62191 33.583s4.9753 34.827 4.9753 34.827 20.523 22.389 29.23 24.254c8.7067 1.8657 21.145 11.194 21.145 11.194l4.9753-6.841s-19.279-18.657-24.254-24.254c-4.9753-5.5972-21.767-11.816-21.767-11.816s4.9753-11.816 4.9753-26.742 2.4876-27.986-2.4876-31.717c-4.9753-3.7314-17.413-2.4876-17.413-2.4876z" fill="#4e5654" filter="url(#ad)"/>
    <path d="m545.41 648.74 7.4629 29.852 26.12 0.62191-4.9753-42.912z" fill="#f2ebd6"/>
    <path d="m557.85 676.23 1.8657 4.229h24.876l-3.7315-4.9753z" fill="#b2aa98"/>
    <path d="m539.19 640.04 3.1096 11.816 39.18-13.682-4.3534-13.682z" fill="#859191"/>
    <path d="m571.53 638.79 18.657-7.4629v5.5972l-13.06 4.3534z" fill="#777666"/>
    <path d="m565.32 683.57 8.0848-1.8657 2.4876 11.816-4.9753 7.4629-6.2191-7.4629z" fill="#e8e59b"/>
    <path d="m545.41 673 2.4876-4.9753s1.8657-0.62191 9.3286 5.5972 11.194 14.304 11.194 14.304l-8.0848 9.3286s3.7314-7.4629-1.8657-12.438c-5.5972-4.9753-13.06-11.816-13.06-11.816z" fill="#efed9d"/>
    <path d="m538.57 686.06c-4.3534 4.3534-0.62191 26.742 0.62191 33.583s4.9753 34.827 4.9753 34.827 20.523 22.389 29.23 24.254c8.7067 1.8657 21.145 11.194 21.145 11.194l4.9753-6.841s-19.279-18.657-24.254-24.254c-4.9753-5.5972-21.767-11.816-21.767-11.816s4.9753-11.816 4.9753-26.742 2.4876-27.986-2.4876-31.717c-4.9753-3.7314-17.413-2.4876-17.413-2.4876z" fill="#5c6663"/>
   </g>
   <path d="m1127.5 704.39c0 3.5276-2.8597 6.3873-6.3873 6.3873s-6.3873-2.8597-6.3873-6.3873 2.8597-6.3873 6.3873-6.3873 6.3873 2.8597 6.3873 6.3873z" fill="#c7c3ad"/>
   <rect transform="matrix(-.34536 -.93847 .92184 -.38756 0 0)" x="-1232.3" y="797.17" width="148.03" height="9.6926" rx="7.6323" fill="url(#ao)"/>
   <path d="m1113.6 709.67c0 3.9877-2.984 7.2204-6.665 7.2204s-6.665-3.2327-6.665-7.2204 2.984-7.2204 6.665-7.2204 6.665 3.2327 6.665 7.2204z" fill="#c7c3ad"/>
   <path d="m1103.1 699.12 14.441 2.2217 1.1108 11.664-6.1095 7.7758-2.7771-3.3325 3.8879-6.1096-1.1108-4.9987-9.4421-1.6662z" fill="#f2ebd6"/>
   <path d="m1115.3 674.12 14.441 2.2217 1.1108 11.664-6.1095 7.7758-2.7771-3.3325 3.8879-6.1096-1.1108-4.9987-9.4421-1.6662z" fill="#f2ebd6"/>
   <path d="m1119.7 695.51c0 1.9939-1.2433 3.6102-2.777 3.6102-1.5338 0-2.7771-1.6163-2.7771-3.6102s1.2433-3.6102 2.7771-3.6102c1.5337 0 2.777 1.6163 2.777 3.6102z" fill="#ce8066"/>
   <path d="m1069.4 850.08-5.5964 4.5624 19.315 28.628 0.8929-5.1929-9.2969-22.628z" fill="#5c6663" stroke="#000" stroke-width="1px"/>
  </g>
  <path d="m843.74 288.42c17.28-1.571 64.409 388.03 65.98 439.87 1.5709 51.841-15.71 161.81-42.416 157.1-26.706-4.7129-80.119-29.848-61.267-296.91s37.703-300.05 37.703-300.05z" fill="#80937d"/>
  <path d="m843.74 288.43s-18.836 32.969-37.688 300.03c-18.615 263.71 33.201 291.52 60.219 296.72l-13.812-576.69c-3.3524-12.937-6.317-20.281-8.7187-20.062z" fill="#8c9e8a"/>
  <path d="m854.74 967.07 26.706 1.5709-12.568-92.686h-12.568z" fill="#a79b70"/>
  <path d="m643.89 275.61c17.334-0.77174 46.432 390.58 45.609 442.44-0.8234 51.859-23.161 160.91-49.621 154.97-26.46-5.9404-78.656-33.514-47.499-299.42s51.511-297.99 51.511-297.99z" fill="#a4b47d"/>
  <path d="m643.89 275.62s-20.338 32.065-51.495 297.97c-30.766 262.57 19.711 292.75 46.46 299.18l12.818-576.71c-2.7518-13.078-5.3743-20.551-7.7835-20.444z" fill="#8ca775"/>
  <path d="m630.09 957.65 26.706 1.5709-12.568-92.686h-12.568z" fill="#a79b70"/>
  <path d="m436.93 293.07c17.345-0.47456 39.732 391.32 38.02 443.16-1.7119 51.837-25.915 160.49-52.269 154.1-26.354-6.393-78.07-34.857-42.36-300.19 35.709-265.33 56.61-297.07 56.61-297.07z" fill="#a4b47d"/>
  <path d="m436.93 293.08s-20.884 31.712-56.593 297.05c-35.261 262.01 14.692 293.04 41.326 299.93l22.699-576.41c-2.5272-13.123-5.0213-20.64-7.432-20.574z" fill="#8ca775"/>
  <path d="m403.88 976.5 21.993 10.997 1.571-105.25h-12.568z" fill="#a79b70"/>
  <path d="m1374.7 429.81-34.561-124.11-26.706 127.25z" fill="#ccd7c1"/>
  <path d="m1272.6 431.38-34.561-124.11-26.706 127.25z" fill="#ccd7c1"/>
  <path d="m969.42 696.87-34.561-124.11-26.706 127.25z" fill="#ccd7c1"/>
  <path d="m1335.5 415.67v39.274h17.28l-1.5709-36.132z" fill="#888759"/>
  <path d="m1241.2 426.67-1.5709 40.845h17.28l-4.7128-40.845z" fill="#888759"/>
  <path d="m931.72 692.16v34.561l14.138 1.571-3.1419-36.132z" fill="#888759"/>
  <path d="m1428.1 913.66-307.91-114.68 40.845-81.69 76.977-76.977 84.831-45.558 111.54-31.419 92.686 21.993 50.27 36.132-1.571 226.22z" fill="#8d8a63"/>
  <path d="m1434.4 563.35-111.53 31.406-84.844 45.562-70.406 70.406 261.06 202.69 147.09-65.75 1.5937-226.19-50.281-36.156-92.687-21.969z" fill="#94905c"/>
  <path d="m1434.4 563.35-111.53 31.406-74.562 40.031 179.66 278.06 0.7188 0.5625 147.09-65.75 1.5937-226.19-50.281-36.156-92.687-21.969z" fill="#8d8a63"/>
  <path d="m1434.4 563.35-111.53 31.406-8.75 4.6875 116.22 313.22 145.44-65 1.5937-226.19-50.281-36.156-92.687-21.969z" fill="#94905c"/>
  <path d="m1434.4 563.35-4.9063 1.375 8.1875 344.66 138.09-61.719 1.5937-226.19-50.281-36.156-92.687-21.969z" fill="#8d8a63"/>
  <path d="m1575.8 693.73-458.72 108.4-196.37 152.38-218.36 17.28-75.406-14.139-131.96 1.571-290.63 25.135-54.983 26.706 1412.3-14.139 21.993 3.1419 7.8548-306.34z" fill="#efe3cb"/>
 </g>
</svg>
